<?xml version="1.0" encoding="UTF-8"?>
<svg id="Layer_1" data-name="Layer 1" xmlns="http://www.w3.org/2000/svg" viewBox="0 0 500 501.63">
  <defs>
    <style>
      .cls-1 {
        fill: #ec9e3c;
      }
    </style>
  </defs>
  <path class="cls-1" d="M239.04,1.55c2.88-.59,17.62-3.39,33.46,3.06,26.87,10.93,33.04,38.74,49.23,68.55,24.56,45.21,59.53,71.74,81.16,88.15,49.44,37.51,83.91,37.81,93.8,71.19,5.65,19.07-.44,36.4-1.95,40.54-10.45,28.53-36.19,35.74-69.06,57.81-44.69,30.01-72.13,67.06-86.62,86.62-31.44,42.45-39.21,72.48-71.48,81.17-3.73,1-17.49,4.33-33.57.13-30.56-7.99-39.91-35.48-67.1-72.63-20.09-27.46-46.86-64.04-90.95-90.95-12.22-7.46-53.42-31.05-68.2-56.81-2.13-3.71-7.13-12.66-7.7-24.99,0,0-.57-12.45,5.22-25.28,11.94-26.43,55.82-45.06,85.83-65.73,33.3-22.94,52.91-50.72,80.38-89.63C197.91,35.32,209.75,7.59,239.04,1.55Z"/>
</svg>